<svg width="150" height="76" viewBox="0 0 150 76" fill="none" xmlns="http://www.w3.org/2000/svg">
<path d="M83.0855 42.8463C81.9571 42.8463 80.9169 42.626 79.9649 42.1852C79.0128 41.7444 78.2547 41.1186 77.6905 40.3076C77.1264 39.4966 76.8443 38.5621 76.8443 37.5043C76.8443 36.3231 77.0647 35.2212 77.5054 34.1986C77.9462 33.1584 78.5897 32.3298 79.436 31.7127C80.2998 31.078 81.3048 30.7606 82.4508 30.7606C83.6496 30.7606 84.5576 31.1485 85.1747 31.9243C85.7917 32.6824 86.0826 33.6432 86.0474 34.8068C86.0474 35.847 85.6331 36.6404 84.8044 37.187C83.9934 37.7335 82.9532 38.0068 81.6838 38.0068C81.4899 38.0068 81.199 37.9891 80.8111 37.9539C80.1764 37.8834 79.7269 37.7864 79.4624 37.663C79.1979 37.5396 79.0657 37.2927 79.0657 36.9225C79.0657 36.7991 79.101 36.7109 79.1715 36.658C79.242 36.5875 79.3831 36.5523 79.5946 36.5523C79.8238 36.5523 80.2293 36.6052 80.8111 36.7109C81.3753 36.8167 81.8778 36.8696 82.3185 36.8696C83.9405 36.8696 84.7515 36.1644 84.7515 34.754C84.7515 33.9077 84.5929 33.2377 84.2755 32.7441C83.9758 32.2504 83.4381 32.0036 82.6623 32.0036C81.8161 32.0036 81.058 32.2328 80.388 32.6912C79.718 33.1319 79.1979 33.7138 78.8277 34.4366C78.4751 35.1595 78.2988 35.9264 78.2988 36.7374C78.2988 38.1302 78.6867 39.2762 79.4624 40.1753C80.2381 41.0569 81.437 41.4976 83.059 41.4976C83.253 41.4976 83.5791 41.48 84.0375 41.4447C84.2314 41.4271 84.4695 41.3742 84.7515 41.286C85.0336 41.1979 85.2364 41.1362 85.3598 41.1009C86.1179 40.8365 86.6733 40.7042 87.0259 40.7042C87.2903 40.7042 87.4931 40.7748 87.6341 40.9158C87.1934 41.5858 86.5322 42.0794 85.6507 42.3968C84.7868 42.6965 83.9317 42.8463 83.0855 42.8463Z" fill="#43372B"/>
<path d="M71.0827 24.2285C71.876 24.2285 72.6342 24.4313 73.357 24.8368C74.0799 25.2246 74.6617 25.7271 75.1024 26.3442C75.5608 26.9612 75.79 27.5783 75.79 28.1954H75.2082C74.9438 28.1954 74.7057 28.116 74.4942 27.9574C74.3002 27.7987 74.0446 27.5431 73.7273 27.1904C73.2689 26.6968 72.8545 26.3266 72.4843 26.0797C72.1317 25.8329 71.6733 25.7095 71.1091 25.7095C70.1394 25.7095 69.3284 26.1591 68.6761 27.0582C68.0238 27.9397 67.6359 28.9799 67.5125 30.1788C67.4596 30.7254 67.4332 31.2719 67.4332 31.8184C67.4332 32.7176 67.4949 33.5462 67.6183 34.3043C67.8475 34.3396 68.3852 34.3837 69.2315 34.4366C70.0777 34.4895 70.7741 34.5335 71.3207 34.5688C71.5146 34.5688 71.8937 34.5864 72.4579 34.6217C72.6342 34.6217 72.7576 34.6658 72.8281 34.7539C72.9162 34.8244 72.9603 34.9567 72.9603 35.1506C72.9603 35.6266 72.4226 35.8646 71.3471 35.8646C70.4127 35.8646 69.2403 35.6972 67.8298 35.3622C68.0238 36.1556 68.2706 36.8872 68.5703 37.5572C68.87 38.2095 69.2579 38.9941 69.7339 39.9108C70.0689 40.5632 70.3157 41.0745 70.4744 41.4447C70.6331 41.7973 70.7124 42.097 70.7124 42.3438C70.7124 42.5378 70.6507 42.6788 70.5273 42.767C70.4039 42.8375 70.2276 42.8728 69.9984 42.8728C69.5224 42.8728 69.0728 42.3703 68.6497 41.3654C68.2442 40.3428 67.777 38.9324 67.248 37.134L66.772 35.5737C66.3842 35.609 65.8993 35.7148 65.3175 35.8911C65.2646 35.9087 65.0795 35.9616 64.7621 36.0498C64.4624 36.1203 64.1892 36.1555 63.9423 36.1555C63.6602 36.1555 63.5192 35.9881 63.5192 35.6531C63.5192 35.2123 63.7484 34.9214 64.2068 34.7804C64.6652 34.6217 65.0971 34.5335 65.5026 34.5159C65.9081 34.4807 66.1638 34.4542 66.2696 34.4366C66.2343 33.7666 66.2167 33.1672 66.2167 32.6383C66.2167 30.3639 66.5605 28.3981 67.248 26.7409C67.9533 25.066 69.2315 24.2285 71.0827 24.2285Z" fill="#43372B"/>
<path d="M57.0919 42.8464C55.2583 42.8464 53.6627 42.529 52.3052 41.8943C50.9653 41.242 50.2953 40.1048 50.2953 38.4828C50.2953 37.901 50.4716 37.3368 50.8242 36.7903C51.1768 36.2437 51.6969 35.803 52.3845 35.468C53.0721 35.1154 53.9096 34.9391 54.8969 34.9391C55.655 34.9391 56.2985 34.9743 56.8274 35.0449C57.3563 35.1154 57.9646 35.3093 58.6522 35.6267C59.3398 35.944 60.0538 36.4465 60.7943 37.1341C60.5122 35.9176 60.0891 34.8509 59.5249 33.9342C58.9607 33.0174 58.326 32.3121 57.6208 31.8185C56.9332 31.3072 56.2544 31.0516 55.5845 31.0516C55.2671 31.0516 54.9674 31.1133 54.6853 31.2367C54.4209 31.3425 54.0947 31.5011 53.7068 31.7127C53.2661 31.9948 52.9399 32.1358 52.7283 32.1358C52.6402 32.1358 52.5608 32.1094 52.4903 32.0565C52.4374 31.986 52.411 31.9066 52.411 31.8185C52.411 31.1133 52.7195 30.5667 53.3366 30.1789C53.9713 29.791 54.7382 29.6147 55.6374 29.6499C56.8715 29.7205 57.9998 30.2494 59.0224 31.2367C60.045 32.2064 60.8472 33.4141 61.429 34.8598C62.0284 36.3055 62.3281 37.7247 62.3281 39.1175C62.3281 39.3467 62.3105 39.6729 62.2752 40.096L61.429 40.0431C60.759 38.6856 59.8951 37.7247 58.8373 37.1605C57.7971 36.5787 56.7481 36.2878 55.6902 36.2878C54.3327 36.2878 53.363 36.4906 52.7812 36.8961C52.1994 37.3016 51.9085 37.8922 51.9085 38.6679C51.9085 39.4789 52.314 40.1313 53.125 40.6249C53.936 41.1186 54.9762 41.3654 56.2456 41.3654C56.9508 41.3654 57.515 41.3301 57.9381 41.2596C58.3613 41.1715 58.802 41.0569 59.2604 40.9158C59.6307 40.7924 59.9568 40.7043 60.2389 40.6514C60.521 40.5985 60.8824 40.572 61.3232 40.572C61.8168 40.572 62.1254 40.6073 62.2488 40.6778C62.3898 40.7483 62.4604 40.907 62.4604 41.1538C62.4604 41.3301 62.0989 41.5505 61.3761 41.815C60.6532 42.0794 59.8422 42.3174 58.9431 42.529C58.0439 42.7406 57.4269 42.8464 57.0919 42.8464Z" fill="#43372B"/>
<path d="M45.0502 42.8728C42.9875 42.8728 41.3831 42.4056 40.2371 41.4712C39.1088 40.5191 38.5446 39.0558 38.5446 37.0812C38.5446 36.0762 38.7914 35.1242 39.2851 34.225C39.7964 33.3083 40.4751 32.5766 41.3214 32.0301C42.1853 31.4659 43.1109 31.1838 44.0982 31.1838C45.1031 31.1838 45.9582 31.4042 46.6634 31.8449C47.3686 32.2681 47.7213 32.8851 47.7213 33.6961C47.7213 34.2603 47.6155 34.6658 47.4039 34.9126C47.21 35.1418 46.9896 35.2564 46.7428 35.2564C46.7428 34.4102 46.5136 33.7226 46.0552 33.1937C45.5968 32.6647 44.9445 32.4003 44.0982 32.4003C43.2519 32.4003 42.5203 32.6295 41.9032 33.0879C41.2861 33.5286 40.8101 34.1193 40.4751 34.8597C40.1578 35.5826 39.9991 36.3407 39.9991 37.1341C39.9991 38.809 40.5633 39.9461 41.6916 40.5456C42.8376 41.145 44.345 41.4447 46.2138 41.4447C46.8485 41.4447 47.6772 41.4095 48.6997 41.3389C48.735 41.3389 48.8143 41.3742 48.9378 41.4447C49.0612 41.5153 49.1581 41.5593 49.2287 41.577V41.7356C49.2287 42.2469 48.7791 42.5643 47.8799 42.6877C46.9808 42.8111 46.0375 42.8728 45.0502 42.8728Z" fill="#43372B"/>
<path d="M118.807 75.1655C116.286 75.1655 114.092 74.7291 112.226 73.8564C110.383 72.9595 109.462 71.3959 109.462 69.1656C109.462 68.3656 109.705 67.5899 110.189 66.8384C110.674 66.0869 111.389 65.4808 112.335 65.0202C113.28 64.5354 114.432 64.293 115.789 64.293C116.832 64.293 117.716 64.3415 118.444 64.4384C119.171 64.5354 120.007 64.8021 120.953 65.2384C121.898 65.6748 122.88 66.3657 123.898 67.3111C123.51 65.6384 122.928 64.1718 122.153 62.9112C121.377 61.6506 120.504 60.6809 119.535 60.0022C118.589 59.2991 117.656 58.9476 116.735 58.9476C116.298 58.9476 115.886 59.0325 115.498 59.2022C115.135 59.3476 114.686 59.5658 114.153 59.8567C113.547 60.2446 113.098 60.4385 112.807 60.4385C112.686 60.4385 112.577 60.4021 112.48 60.3294C112.407 60.2325 112.371 60.1234 112.371 60.0022C112.371 59.0325 112.795 58.281 113.644 57.7477C114.517 57.2143 115.571 56.9719 116.807 57.0204C118.504 57.1174 120.056 57.8446 121.462 59.2022C122.868 60.5355 123.971 62.196 124.771 64.1839C125.595 66.1717 126.007 68.1232 126.007 70.0383C126.007 70.3535 125.983 70.8019 125.934 71.3837L124.771 71.311C123.85 69.4444 122.662 68.1232 121.207 67.3475C119.777 66.5475 118.335 66.1475 116.88 66.1475C115.014 66.1475 113.68 66.4263 112.88 66.9838C112.08 67.5414 111.68 68.3535 111.68 69.4201C111.68 70.5353 112.238 71.4322 113.353 72.111C114.468 72.7898 115.898 73.1292 117.644 73.1292C118.613 73.1292 119.389 73.0807 119.971 72.9837C120.553 72.8625 121.159 72.7049 121.789 72.511C122.298 72.3413 122.747 72.2201 123.135 72.1474C123.522 72.0746 124.019 72.0383 124.625 72.0383C125.304 72.0383 125.728 72.0868 125.898 72.1837C126.092 72.2807 126.189 72.4989 126.189 72.8383C126.189 73.0807 125.692 73.3837 124.698 73.7473C123.704 74.111 122.589 74.4382 121.353 74.7291C120.116 75.02 119.268 75.1655 118.807 75.1655Z" fill="#43372B"/>
<path d="M105.354 74.911C104.821 72.2686 104.409 69.1414 104.118 65.5293C103.851 61.8931 103.718 58.378 103.718 54.9841C103.718 53.2872 103.754 51.7842 103.827 50.4751C103.827 50.16 104.07 50.0024 104.554 50.0024C104.942 50.0024 105.185 50.0994 105.282 50.2933C105.403 50.4872 105.463 50.7902 105.463 51.2024C105.463 55.1296 105.536 58.4871 105.682 61.2749C105.827 64.0385 106.021 67.0202 106.263 70.2202C106.409 72.2807 106.506 73.6746 106.554 74.4019C106.579 74.7898 106.373 74.9837 105.936 74.9837C105.791 74.9837 105.597 74.9594 105.354 74.911Z" fill="#43372B"/>
<path d="M99.2465 74.911C98.7132 72.2686 98.3011 69.1414 98.0102 65.5293C97.7435 61.8931 97.6102 58.378 97.6102 54.9841C97.6102 53.2872 97.6465 51.7842 97.7193 50.4751C97.7193 50.16 97.9617 50.0024 98.4465 50.0024C98.8344 50.0024 99.0768 50.0994 99.1738 50.2933C99.295 50.4872 99.3556 50.7902 99.3556 51.2024C99.3556 55.1296 99.4283 58.4871 99.5738 61.2749C99.7192 64.0385 99.9132 67.0202 100.156 70.2202C100.301 72.2807 100.398 73.6746 100.446 74.4019C100.471 74.7898 100.265 74.9837 99.8283 74.9837C99.6829 74.9837 99.4889 74.9594 99.2465 74.911Z" fill="#43372B"/>
<path d="M89.5289 75.1654C87.9774 75.1654 86.5471 74.8624 85.2381 74.2564C83.929 73.6503 82.8866 72.7897 82.1108 71.6746C81.3351 70.5595 80.9472 69.2746 80.9472 67.8201C80.9472 66.1959 81.2503 64.6808 81.8563 63.2748C82.4624 61.8445 83.3472 60.7051 84.5108 59.8567C85.6986 58.9839 87.0804 58.5476 88.6562 58.5476C90.3046 58.5476 91.5531 59.0809 92.4015 60.1476C93.25 61.19 93.65 62.5111 93.6015 64.1111C93.6015 65.5414 93.0318 66.6323 91.8925 67.3838C90.7773 68.1353 89.3471 68.511 87.6016 68.511C87.335 68.511 86.935 68.4868 86.4017 68.4383C85.529 68.3413 84.9108 68.208 84.5472 68.0383C84.1835 67.8686 84.0017 67.5292 84.0017 67.0201C84.0017 66.8505 84.0502 66.7292 84.1472 66.6565C84.2441 66.5595 84.4381 66.5111 84.729 66.5111C85.0441 66.5111 85.6017 66.5838 86.4017 66.7292C87.1774 66.8747 87.8683 66.9474 88.4744 66.9474C90.7046 66.9474 91.8197 65.9777 91.8197 64.0384C91.8197 62.8748 91.6016 61.9536 91.1652 61.2748C90.7531 60.596 90.0137 60.2566 88.9471 60.2566C87.7835 60.2566 86.7411 60.5718 85.8199 61.2021C84.8987 61.8081 84.1835 62.6081 83.6744 63.602C83.1896 64.596 82.9472 65.6505 82.9472 66.7656C82.9472 68.6807 83.4805 70.2564 84.5472 71.4928C85.6138 72.7049 87.2623 73.3109 89.4925 73.3109C89.7592 73.3109 90.2076 73.2867 90.8379 73.2382C91.1046 73.214 91.4319 73.1412 91.8197 73.02C92.2076 72.8988 92.4864 72.814 92.6561 72.7655C93.6985 72.4019 94.4621 72.22 94.9469 72.22C95.3106 72.22 95.5894 72.317 95.7833 72.5109C95.1772 73.4321 94.2682 74.1109 93.0561 74.5473C91.8682 74.9594 90.6925 75.1654 89.5289 75.1654Z" fill="#43372B"/>
<path d="M72.8902 75.1654C71.8963 73.2261 71.1084 70.9473 70.5266 68.3292C69.9691 65.7111 69.6903 63.4444 69.6903 61.5293C69.6903 60.7778 69.86 60.293 70.1994 60.0748C70.3933 59.9536 70.5387 59.893 70.6357 59.893C70.8054 59.893 70.9266 60.0263 70.9993 60.293C71.0963 60.5596 71.1933 61.0445 71.2902 61.7475L71.4721 63.0566C71.7387 61.7475 72.2478 60.7172 72.9993 59.9657C73.775 59.19 74.7205 58.8021 75.8356 58.8021C77.0719 58.8021 77.9931 59.0445 78.5992 59.5294C79.2052 59.99 79.5083 60.7657 79.5083 61.8566C78.2962 61.2748 77.1932 60.9839 76.1992 60.9839C75.2538 60.9839 74.4417 61.2384 73.7629 61.7475C73.0841 62.2566 72.6114 63.0081 72.3448 64.002C72.1266 64.6808 72.0175 65.3232 72.0175 65.9292C72.0175 66.5838 72.1023 67.2019 72.272 67.7837C72.466 68.3413 72.7569 69.0322 73.1448 69.8564C73.5084 70.7049 73.7872 71.4322 73.9811 72.0382C74.1993 72.6442 74.3205 73.2988 74.3447 74.0018C74.3447 74.4139 74.1993 74.7169 73.9084 74.9109C73.6175 75.0806 73.2781 75.1654 72.8902 75.1654Z" fill="#43372B"/>
<path d="M60.2606 75.2018C58.3213 75.2018 56.794 74.8261 55.6789 74.0746C54.5638 73.2988 53.7395 72.1352 53.2062 70.5837C52.6729 69.008 52.3214 66.899 52.1517 64.2566L51.0972 58.1113C51.0002 57.2143 50.8669 56.3416 50.6972 55.4931C50.5275 54.6447 50.4426 54.0386 50.4426 53.675C50.4426 53.1659 50.5881 52.7902 50.879 52.5478C51.1699 52.2811 51.6911 52.0993 52.4426 52.0023C52.588 53.2144 52.685 54.1235 52.7335 54.7295C53.0001 57.081 53.2183 58.887 53.388 60.1476C53.582 61.3839 53.8244 62.6809 54.1153 64.0384C55.9819 63.2142 57.7758 62.8021 59.497 62.8021C61.0485 62.8021 62.4303 63.1294 63.6424 63.7839C64.8545 64.4142 65.7999 65.3111 66.4787 66.4747C67.1574 67.6141 67.4968 68.8989 67.4968 70.3292C67.4968 72.0019 66.7574 73.2382 65.2787 74.0382C63.8242 74.814 62.1515 75.2018 60.2606 75.2018ZM65.4605 70.4019C65.4847 70.2322 65.4969 69.9898 65.4969 69.6747C65.4969 67.9535 64.9029 66.6687 63.7151 65.8202C62.5515 64.9717 60.8909 64.5475 58.7334 64.5475C57.4001 64.5475 56.3577 64.8142 55.6062 65.3475C54.8789 65.8566 54.5153 66.5596 54.5153 67.4565C54.5153 69.5171 55.0728 71.0201 56.188 71.9655C57.3273 72.911 59.0606 73.3837 61.3879 73.3837C62.503 73.3837 63.4363 73.1291 64.1878 72.6201C64.9393 72.111 65.3635 71.3716 65.4605 70.4019Z" fill="#43372B"/>
<path d="M45.8478 75.2018C45.4842 75.2018 45.266 75.1049 45.1933 74.9109C45.1205 74.6927 45.0842 74.3655 45.0842 73.9291C45.1084 73.7594 45.1205 73.5655 45.1205 73.3473C45.1205 73.1049 45.1326 72.9231 45.1569 72.8019C45.3023 71.6383 45.3751 70.5353 45.3751 69.4928C45.3751 67.1899 44.9872 65.396 44.2115 64.1111C43.4357 62.8021 42.2115 62.1475 40.5388 62.1475C39.6176 62.1475 38.6964 62.3778 37.7752 62.8384C36.8783 63.299 36.1389 63.8687 35.5571 64.5475C34.9995 65.2263 34.7207 65.8444 34.7207 66.402C34.842 67.105 35.0601 67.9656 35.3753 68.9838C35.3995 69.105 35.4965 69.4807 35.6662 70.111C35.8601 70.7413 35.9571 71.311 35.9571 71.8201L35.9934 72.511C35.9934 72.8988 35.7995 73.0928 35.4116 73.0928C34.9268 73.0928 34.5268 72.7776 34.2117 72.1473C33.9208 71.517 33.5935 70.5352 33.2299 69.2019C32.8662 67.8929 32.5147 66.8141 32.1753 65.9656C31.836 65.1172 31.3754 64.3899 30.7936 63.7839C30.2117 63.1778 29.4724 62.8748 28.5754 62.8748C27.3391 62.8748 26.3694 63.299 25.6664 64.1475C24.9876 64.996 24.6482 66.0384 24.6482 67.2747C24.6482 68.0989 24.721 69.1898 24.8664 70.5474C24.9876 71.5655 25.0482 72.4382 25.0482 73.1655C25.0482 73.6019 24.9997 73.9291 24.9028 74.1473C24.8058 74.3655 24.5755 74.4746 24.2119 74.4746C23.727 74.4746 23.3876 74.317 23.1937 74.0018C22.9998 73.6625 22.9028 73.1534 22.9028 72.4746C22.9028 71.1413 22.8301 69.5292 22.6846 67.6383C22.6604 67.3959 22.6119 66.7778 22.5392 65.7838C22.4665 64.7657 22.4543 63.7475 22.5028 62.7294L22.5392 61.5294C22.6846 61.3839 22.8543 61.3112 23.0483 61.3112C23.3149 61.3112 23.5331 61.4809 23.7028 61.8203C23.8967 62.1354 23.9937 62.6203 23.9937 63.2748C24.3573 62.6445 24.8906 62.0748 25.5937 61.5657C26.2967 61.0567 27.0361 60.8021 27.8118 60.8021C29.1451 60.8021 30.2481 61.0809 31.1208 61.6385C32.0178 62.1718 32.8299 63.0445 33.5571 64.2566C34.2359 63.0203 35.2541 61.9657 36.6116 61.093C37.9934 60.2203 39.4116 59.784 40.8661 59.784C42.3691 59.784 43.6175 60.3536 44.6114 61.493C45.6296 62.6324 46.369 64.0021 46.8296 65.602C47.3144 67.202 47.5568 68.6807 47.5568 70.0383C47.5568 71.2504 47.4478 72.414 47.2296 73.5291C47.0356 74.6443 46.575 75.2018 45.8478 75.2018Z" fill="#43372B"/>
<path d="M8.21801 75.2019C5.35747 75.2019 3.32114 73.9171 2.10905 71.3474C0.921193 68.7778 0.230298 65.4324 0.036363 61.3113C0.012121 60.9476 0 60.4264 0 59.7477C0 58.3659 0.169693 57.2992 0.50908 56.5477C0.872709 55.772 1.53936 55.3841 2.50904 55.3841C2.7757 55.3841 2.98176 55.4568 3.12721 55.6023C3.27266 55.7235 3.34539 55.8932 3.34539 56.1114C3.34539 56.572 3.0666 57.0204 2.50904 57.4568C2.19389 57.4568 1.97572 57.6629 1.85451 58.075C1.75754 58.4871 1.70906 59.1174 1.70906 59.9658C1.70906 60.7416 1.72118 61.3597 1.74542 61.8203C1.89087 65.4324 2.55752 68.2929 3.74538 70.402C4.93323 72.4868 6.58168 73.5292 8.69073 73.5292C9.90283 73.5292 10.9937 73.2383 11.9634 72.6565C12.9331 72.0747 13.6846 71.2989 14.2179 70.3293C14.7755 69.3353 15.0542 68.2687 15.0542 67.1293C14.8118 65.1415 14.6179 63.7476 14.4724 62.9476C14.327 62.1476 14.0603 60.8507 13.6724 59.0568C13.5028 58.3537 13.4179 57.7356 13.4179 57.2023C13.4179 56.6447 13.527 56.2568 13.7452 56.0386C13.9634 55.8205 14.2906 55.7114 14.727 55.7114C14.9936 55.7114 15.1997 55.8689 15.3451 56.1841C15.4906 56.4992 15.6239 57.1174 15.7451 58.0386C15.8663 58.9598 16.0239 60.4628 16.2178 62.5476C16.3391 63.7355 16.5694 64.8991 16.9087 66.0384C17.2724 67.1778 17.7451 68.4869 18.3269 69.9656C18.3754 70.1111 18.5087 70.4747 18.7269 71.0565C18.9451 71.6141 19.1026 72.0747 19.1996 72.4383C19.2966 72.8019 19.3451 73.0928 19.3451 73.311C19.3451 73.8686 19.0542 74.1474 18.4723 74.1474C18.2784 74.1474 17.5633 72.6565 16.3269 69.6747C16.0603 70.7656 15.5148 71.7353 14.6906 72.5838C13.8664 73.408 12.8846 74.0504 11.7452 74.511C10.6058 74.9716 9.43011 75.2019 8.21801 75.2019Z" fill="#43372B"/>
<path d="M82.6462 7.53475C82.7018 7.49479 82.7813 7.45145 82.8831 7.40566C98.8134 -1.22257 119.896 -1.92224 132.025 7.53475C144.215 17.0387 144.5 19.8662 146.359 25.437C148.219 31.0077 149.38 33.9558 149.38 39.4698C149.38 41.926 148.262 47.7765 147.806 49.339C147.776 49.0447 147.835 46.8291 147.806 46.4465C147.748 45.6812 147.806 43.9672 146.359 41.6945C145.051 39.6385 140.138 40.6615 139.713 39.4698C139.206 38.0476 137.869 32.4514 134.352 29.3548C132.68 27.8819 130.828 26.7644 127.691 26.9261C125.484 27.0399 123.633 27.4386 121.152 27.6965C120.734 27.74 120.68 27.2923 120.459 26.6757C119.434 23.81 118.685 21.8136 117.044 20.9059C113.845 19.137 108.291 16.6515 105.802 16.6991C102.35 16.765 98.8397 18.814 98.8397 18.1413C98.8397 17.8371 98.7002 16.7909 98.6039 16.2622C98.2862 14.5194 98.099 12.4671 96.7256 10.6635C95.4608 9.00233 92.6594 6.16079 90.23 6.22351C86.8341 6.31119 83.8522 6.96968 82.8831 7.40566C82.804 7.4485 82.7251 7.49153 82.6462 7.53475Z" fill="#43372B"/>
<path d="M148.76 39.4698C148.76 34.0732 147.636 31.2202 145.771 25.6332C144.83 22.815 144.322 20.8178 142.559 18.318C140.786 15.8038 137.727 12.7663 131.644 8.02356C125.72 3.40473 117.567 1.23747 108.884 1.30801C101.827 1.36536 94.4544 2.90174 87.7108 5.76823C88.5015 5.68517 89.3444 5.62644 90.2139 5.60399C91.6524 5.56687 93.106 6.37653 94.2965 7.30891C95.509 8.2586 96.5619 9.42546 97.2188 10.2882C98.7043 12.2393 98.9087 14.4789 99.2135 16.1511C99.2643 16.4297 99.3247 16.8349 99.3725 17.2071C99.3881 17.3292 99.4025 17.454 99.4156 17.5731C99.7612 17.4744 100.228 17.3096 100.83 17.109C102.142 16.6717 103.961 16.1142 105.79 16.0792C106.502 16.0656 107.384 16.2309 108.324 16.49C109.273 16.7519 110.323 17.1221 111.386 17.5457C113.512 18.3926 115.724 19.4675 117.344 20.3635C118.307 20.8963 118.977 21.7346 119.529 22.7637C120.075 23.7828 120.534 25.0445 121.043 26.4669C121.101 26.6292 121.152 26.7929 121.19 26.9059C121.211 26.9711 121.229 27.022 121.245 27.0625C122.406 26.9377 123.427 26.7842 124.439 26.6432C125.491 26.4965 126.528 26.3654 127.659 26.3071C131.006 26.1345 133.01 27.3475 134.762 28.8897C136.621 30.527 137.879 32.7982 138.731 34.797C139.562 36.7464 140.057 38.5752 140.288 39.2342C140.298 39.2419 140.316 39.2545 140.348 39.2705C140.449 39.3219 140.615 39.3745 140.864 39.4222C141.37 39.5193 142.011 39.5629 142.769 39.6417C143.496 39.7173 144.302 39.8242 145.02 40.0578C145.736 40.2907 146.445 40.6749 146.882 41.3616C147.626 42.5305 147.997 43.57 148.189 44.4171C148.509 42.5197 148.76 40.596 148.76 39.4698ZM150 39.4698C150 40.7568 149.711 42.8808 149.375 44.844C149.037 46.8126 148.639 48.6952 148.401 49.5125L147.189 49.4007C147.177 49.2872 147.177 49.0536 147.177 48.8144C147.178 48.5564 147.182 48.2372 147.186 47.9189C147.193 47.2569 147.199 46.6493 147.188 46.4933V46.4929C147.129 45.7165 147.189 44.1525 145.837 42.0274C145.619 41.6862 145.223 41.4272 144.637 41.2365C144.053 41.0464 143.359 40.9492 142.641 40.8745C141.954 40.8031 141.206 40.7502 140.63 40.6397C140.338 40.5836 140.04 40.5045 139.787 40.3758C139.531 40.2461 139.256 40.0322 139.129 39.678C138.849 38.8903 138.423 37.2338 137.591 35.2832C136.769 33.3542 135.599 31.279 133.942 29.8198C132.349 28.4164 130.649 27.3943 127.723 27.5451C126.648 27.6006 125.654 27.7256 124.61 27.8712C123.569 28.0161 122.47 28.1826 121.216 28.313C120.991 28.3364 120.759 28.2956 120.551 28.1557C120.361 28.0269 120.248 27.8515 120.179 27.7146C120.109 27.5776 120.056 27.4261 120.013 27.2973C119.966 27.1544 119.928 27.0305 119.875 26.8845C119.359 25.4413 118.931 24.272 118.436 23.3496C117.947 22.4372 117.422 21.8231 116.744 21.4482C115.166 20.5753 113.001 19.5231 110.928 18.6969C109.891 18.2839 108.886 17.9313 107.994 17.6853C107.092 17.4365 106.347 17.3087 105.814 17.3189C104.191 17.3499 102.528 17.8499 101.222 18.2853C100.593 18.4951 100.007 18.7038 99.5964 18.8095C99.4026 18.8594 99.163 18.9103 98.9475 18.893C98.8375 18.8842 98.6516 18.8521 98.4851 18.7147C98.2904 18.5539 98.2196 18.3323 98.2196 18.1413C98.2196 18.036 98.1909 17.7392 98.1429 17.3649C98.0968 17.0057 98.0396 16.6235 97.994 16.3734C97.6634 14.56 97.4932 12.6953 96.2322 11.0391C95.6242 10.2407 94.6439 9.15573 93.5322 8.28504C92.3985 7.39712 91.2366 6.81765 90.2458 6.84323C88.5816 6.8862 87.0181 7.06928 85.7549 7.29438C84.4897 7.51987 83.5699 7.77984 83.151 7.96505C83.0819 8.00251 83.0132 8.04068 82.9444 8.07844L82.2842 7.03168C82.3798 6.96286 82.491 6.90404 82.601 6.85332C90.653 2.49511 100.001 0.140472 108.874 0.0683715C117.748 -0.00372636 126.201 2.20775 132.406 7.0458C138.513 11.8069 141.691 14.9355 143.573 17.6038C145.464 20.2862 146.028 22.4882 146.947 25.2406C148.801 30.795 150 33.8385 150 39.4698Z" fill="#43372B"/>
<path d="M129.55 5.88939C129.585 5.58253 129.76 4.94484 130.058 4.09718L130.064 4.08276L130.069 4.06799C130.243 3.64276 130.444 3.29009 130.69 2.81383C130.944 2.32253 131.289 1.62084 131.851 0.578616C132.014 0.27744 132.39 0.165126 132.691 0.327668C132.993 0.490251 133.105 0.866351 132.942 1.16758C132.387 2.19753 132.057 2.86845 131.791 3.38287C131.521 3.90577 131.367 4.17322 131.222 4.52433C130.926 5.36813 130.799 5.87975 130.781 6.03064C130.742 6.37065 130.435 6.6148 130.095 6.5758C129.755 6.5368 129.511 6.22942 129.55 5.88939Z" fill="#43372B"/>
<path d="M119.569 24.1448C119.653 23.813 119.991 23.6123 120.322 23.6965C120.654 23.7808 120.855 24.1181 120.77 24.4499C120.746 24.5461 120.625 24.8899 120.44 25.3986C120.246 25.932 119.964 26.6941 119.597 27.6688C118.863 29.6186 117.787 32.4219 116.39 35.9537C114.336 41.1463 112.457 43.4382 111.657 44.2955C109.689 46.4034 107.965 47.0606 106.08 47.1722C105.51 47.206 104.878 46.9984 104.354 46.7356C103.822 46.4686 103.3 46.0944 102.959 45.6925C102.652 45.3317 102.074 44.6015 102.342 43.5126C102.531 42.7447 102.862 41.2309 103.655 39.4798C103.796 39.1679 104.163 39.0295 104.475 39.1706C104.787 39.3118 104.925 39.6792 104.784 39.991C104.046 41.6215 103.739 43.0243 103.546 43.8092C103.432 44.2731 103.638 44.5775 103.903 44.8891C104.108 45.13 104.48 45.4118 104.91 45.6275C105.349 45.8476 105.75 45.9498 106.007 45.9346C107.554 45.8429 108.986 45.3399 110.751 43.4497C111.437 42.715 113.236 40.5581 115.238 35.4977C116.632 31.972 117.705 29.1752 118.437 27.2322C118.803 26.2606 119.083 25.5029 119.275 24.9749C119.371 24.7108 119.445 24.5052 119.496 24.3595C119.552 24.1977 119.57 24.1403 119.569 24.1448Z" fill="#43372B"/>
</svg>
